<svg id="Layer_1" data-name="Layer 1" xmlns="http://www.w3.org/2000/svg" viewBox="0 0 420 420"><defs><style>.cls-1{fill:#fff;}</style></defs><title>logo-tedxzh-w</title><polygon class="cls-1" points="0 195.48 16.08 195.48 16.08 238.12 33.76 238.12 33.76 195.48 49.84 195.48 49.84 180.75 0 180.75 0 195.48"/><polygon class="cls-1" points="52.55 238.31 100.95 238.31 100.95 223.58 70.24 223.58 70.24 216.38 100.95 216.38 100.95 202.68 70.24 202.68 70.24 195.48 100.95 195.48 100.95 180.75 52.55 180.75 52.55 238.31"/><path class="cls-1" d="M132.93,180.75h-29v57.38h25.55c20.06,0,29.37-11.17,29.37-28.77C158.83,194.89,152.06,180.75,132.93,180.75Zm-4.39,42.75h-6.85V195.57h5.57c12.78,0,13.88,10,13.88,13.63C141.14,214.61,139.54,223.5,128.54,223.5Z"/><polygon class="cls-1" points="196.74 180.67 183.79 180.67 178.8 189.22 173.98 180.67 161.03 180.67 172.88 197.93 160.61 216.04 173.56 216.04 178.8 207.07 184.22 216.04 197.17 216.04 184.9 197.93 196.74 180.67"/><polygon class="cls-1" points="250.73 187.78 250.73 181.09 208.17 181.09 208.17 187.86 240.75 187.86 205.63 231.78 205.63 238.21 250.73 238.21 250.73 231.44 215.36 231.44 250.73 187.78"/><path class="cls-1" d="M283.56,217a26.59,26.59,0,0,1-1.44,9.65,9.71,9.71,0,0,1-9.73,6.52,6.87,6.87,0,0,1-6.77-3.72,11.83,11.83,0,0,1-1-5.25V196.49h-7v28.35a17.67,17.67,0,0,0,1.69,8.55c2.11,4,6.08,5.92,11.93,5.92a14.42,14.42,0,0,0,9.56-3.3,15.4,15.4,0,0,0,3.3-4l-.08,6.18h6.6V196.49h-7Z"/><path class="cls-1" d="M320.12,195.57a10.26,10.26,0,0,0-7.36,3,14.29,14.29,0,0,0-4,5.08v-7.2h-6.69v41.72H309v-24a12.24,12.24,0,0,1,2.88-7.88,9.89,9.89,0,0,1,8.12-3.37h1.19a5.17,5.17,0,0,1,1.18.17v-7.36c-.76-.09-1.27-.17-1.6-.17Z"/><rect class="cls-1" x="328.41" y="181.01" width="7.11" height="7.95"/><rect class="cls-1" x="328.41" y="196.75" width="7.11" height="41.46"/><path class="cls-1" d="M362.26,201.49a9,9,0,0,1,7.11,2.53,12.55,12.55,0,0,1,2.87,6.44H379c-.59-5.59-2.36-9.48-5.33-11.77a18.68,18.68,0,0,0-11.43-3.46,17.13,17.13,0,0,0-13.53,6.09c-3.56,4.06-5.34,9.82-5.34,17.1a23,23,0,0,0,4.83,14.89,16,16,0,0,0,13,6,18.3,18.3,0,0,0,11.92-3.81,18.09,18.09,0,0,0,5.85-12.1h-6.77a15.18,15.18,0,0,1-3.55,7.28,9.19,9.19,0,0,1-6.94,2.62,9.08,9.08,0,0,1-8.29-4.32,19.18,19.18,0,0,1-2.62-10.49A25.46,25.46,0,0,1,352.7,208,9.86,9.86,0,0,1,362.26,201.49Z"/><path class="cls-1" d="M418.2,201.91c-2.12-4.23-6.26-6.35-12.27-6.35a15.57,15.57,0,0,0-8.47,2.2,19.29,19.29,0,0,0-4.48,4.4V180.84h-7V238.2h7V216.13c0-5.58,1.19-9.31,3.56-11.33a12.11,12.11,0,0,1,7.87-3,7.45,7.45,0,0,1,7.2,3.38,15.09,15.09,0,0,1,1.18,6.77V238.2H420V211.55A21.27,21.27,0,0,0,418.2,201.91Z"/></svg>