<svg id="Layer_1" data-name="Layer 1" xmlns="http://www.w3.org/2000/svg" viewBox="0 0 420 420"><defs><style>.cls-1{fill:#fff;}</style></defs><title>logo-ricola-w</title><path class="cls-1" d="M159.1,196.61a16.25,16.25,0,1,1,16.22-16.26,16.21,16.21,0,0,1-16.22,16.26m207.78,45a8.27,8.27,0,1,1,8.25-8.25,8.26,8.26,0,0,1-8.25,8.25m-112.82-.12a8.19,8.19,0,1,1,8.2-8.18,8.19,8.19,0,0,1-8.2,8.18M72.45,215.05c-1.77.58-1.24-.06-1-1s1.11-4.51,1.94-7.61,0-3-1.79-3H49.19c-1.79.05-2,.31-2.82,2.49S41,224.38,39.09,228.73a15.79,15.79,0,0,1-4.53,6.35c-4,3-8.43,1.31-8.43-6.59,0-21.64,20.15-49.25,49.13-49,13.49.55,18.22,6.85,19,11.17,3.07,15.89-19.6,23.72-21.86,24.43m347.38,38.1c-.16-1.12-1.76-15.49-2.09-18.26s-2.34-1.55-2.8-1.29-4,2.77-7.08,4.61c-2.36,1.4-5.74.2-4.28-4.34.56-1.75,7.9-25.18,8.64-27.67.75-2.75-.74-2.75-2-2.75,0,0-16.6,0-19.26,0-1.3,0-1.83,1.21-2.07,1.73-.48.95-.87,2-1.59,3.26-.48.81-1.06.5-1.55,0a28.53,28.53,0,0,0-19.08-7.78c-20.07,0-29.48,17.2-30.82,28.89-.17,1.12-.42,1.2-.86,1.47-1.46.81-9.87,5.51-12.09,6.72-2.79,1.51-4.56-.83-3.59-3.86,0-.26,18.93-60.47,19.6-62.59s-.56-2.23-1.52-2.24l-21.56,0c-1.55,0-1.82.53-2.22,1.65-.23.64-11.76,38.27-11.76,38.27s-2.84,2.44-15.1,2.44c-13.39,0-17.69-10.72-34.34-10.72-27.31,0-30,30-30,30s-9.64,5.39-13.18,7.23c-3,1.54-4.8,2.8-7.58,2.85-6.06.11-8.24-5-8.21-8.16,0-5.1,3.27-7.66,6.85-8.24a7.12,7.12,0,0,1,5.43,1.37c1.67,1.08,2.18.09,2.5-.28,1.07-1.33,12-14,13-15.19a2.09,2.09,0,0,0-.5-3.07c-3.06-3.06-9.62-6.63-18-6.63-24.46.56-31.31,20.09-31.85,27.73a2.69,2.69,0,0,1-1.53,2c-1.14.8-8.38,5.19-10.14,6.13-4.35,2.27-5-1.43-4.57-2.57,0,0,7-23.17,8.37-27.22,1.26-3.89,1.06-3.15-2.28-3.27h-18.7c-3.33,0-2.91-.32-3.61,2,0,.31-4.41,14.65-5.48,17.12a7.86,7.86,0,0,1-3.29,4.35c-.58.43-5,3.24-5,3.24-15.78,10.43-16.64,8.58-22.89-4.08-.79-1.23-.9-1.84.53-2.53,4-2.58,19.8-11,19.8-33.29,0-21.88-18.78-35.6-48.05-35.6-41.17,0-75.23,35.75-74,76,1.41,44.14,36.9,41.77,54.33,18.48,13.47-18,12.88-27.29,15-27.29.92,0,2.44,3.55,4.77,8,4.18,8,10,19.71,12.87,24,4.4,6.45,11.48,10.48,18.79,10.56,8.82.07,14.81-4.66,23.16-10.08.9-.58,2.08-1.26,3.3.27a22.07,22.07,0,0,0,19,9.87c9.61,0,21.59-8.48,24-9.91,1.66-1,1.74-1,3.24.33.61.54,9.92,9.53,22.35,9.53,10.47,0,26.38-8.61,27.54-9.28.78-.49,1.91-1.17,3,0,2.17,2.24,8,9.28,21.81,9.28,24.22,0,32.14-20.23,32.68-29.91.07-1.21.15-1.53,2-1.52h4.55c.82,0,2.13,0,1.82,1.52-.44,2-2.42,8.06-1.23,13.71,1.5,7.23,8.27,16.77,22.5,16.2,9.08-.36,24.54-10,25.47-10.4s1.72-.68,3,.51c4,3.67,11.45,9.76,20.94,10a30.69,30.69,0,0,0,18-5.35c.87-.58,1.4-.8,2.28-.07a18.37,18.37,0,0,0,13.48,5.32c7.91,0,18.93-7.55,20.36-8.43s.95-1.5.79-2.73"/></svg>