<svg id="Layer_1" data-name="Layer 1" xmlns="http://www.w3.org/2000/svg" viewBox="0 0 420 420"><defs><style>.cls-1{fill:#fff;}</style></defs><title>logo-victorinox-w</title><g id="Swiss_Army" data-name="Swiss Army"><path class="cls-1" d="M93.13,296.42l.91,8.9H92.45c-.69-3-1.83-4.56-3-5.25a6.6,6.6,0,0,0-4.34-1.37c-2,0-3.65.92-3.65,3.43,0,2.05,1.14,2.74,3.65,4.33l3.43,2.06c3.88,2.28,6.16,4.11,6.16,7.76,0,4.57-3.65,7.53-8.9,7.53a11.71,11.71,0,0,1-3.88-.68c-1.6-.46-2.29-.92-2.52-.92-.68,0-.68.69-.68,1.37H77.38l-1.14-9.13h1.37a17.62,17.62,0,0,0,2.28,4.34,7.57,7.57,0,0,0,5.94,2.51,4,4,0,0,0,4.33-4.11c0-2.51-1.82-3.65-4.79-5.48l-3.65-2.28C79,307.83,77.38,306,77.38,303c0-3.88,2.74-7.08,7.76-7.08a10.14,10.14,0,0,1,3.43.69c1.59.46,2.28.91,2.73.91s.69-.68.92-1.37h.91Zm42.23.46v1.37c-1.37.23-2.51.68-3,2.28L124.17,324H122.8l-5.7-16-5.48,15.75h-1.37l-6.62-17.35a48.18,48.18,0,0,0-3-6.84,3.26,3.26,0,0,0-2.28-1.37h-.23v-1.37h10.27v1.37a8.52,8.52,0,0,0-1.82.23c-.46.22-.69.45-.69.91a5.8,5.8,0,0,0,.46,1.6l5.48,14.61,3.88-11.87-1.6-3.43a2.42,2.42,0,0,0-1.37-1.6,3.51,3.51,0,0,0-1.6-.22v-1.37h10.5v1.59h-.91c-1.83,0-2,.69-2,1.15a5.67,5.67,0,0,0,.45,1.59l5,14.38,4.34-13a9.68,9.68,0,0,0,.46-2.74c0-.68-.23-.91-.92-1.14a2.88,2.88,0,0,0-1.59-.23v-1.37h8.9Zm11.87,23.05c0,.92.45,1.37,1.37,1.6a4.24,4.24,0,0,0,1.82.46v1.37H139.7V322a4.35,4.35,0,0,0,1.82-.69c.69-.45,1.14-.68,1.14-1.6V300.3c0-1.37-1.82-2.05-3-2.28v-1.37h10.72V298c-1.37.23-3,.68-3,2.28v19.63Zm26.25-23.51.91,8.9h-1.6c-.68-3-1.82-4.56-3-5.25a7.07,7.07,0,0,0-4.34-1.37c-2.06,0-3.65.92-3.65,3.43,0,2.05,1.14,2.74,3.65,4.33l3.42,2.06c3.88,2.28,6.17,4.11,6.17,7.76,0,4.57-3.66,7.53-8.91,7.53a11.75,11.75,0,0,1-3.88-.68c-1.59-.46-2.28-.92-2.74-.92-.68,0-.68.69-.68,1.37H157.5l-1.14-9.13h1.37a17.62,17.62,0,0,0,2.28,4.34A7.56,7.56,0,0,0,166,321.3a4.14,4.14,0,0,0,4.33-4.11c0-2.51-1.82-3.65-4.79-5.48l-3.65-2.28c-2.74-1.6-4.34-3.42-4.34-6.39,0-3.88,2.74-7.08,7.76-7.08a10,10,0,0,1,3.42.69c1.6.46,2.29.91,2.74.91s.69-.68.69-1.37h1.37Zm25.11,0,.91,8.9h-1.6c-.68-3-1.82-4.56-3-5.25a7,7,0,0,0-4.33-1.37c-2.06,0-3.65.92-3.65,3.43,0,2.05,1.14,2.74,3.65,4.33l3.42,2.06c3.88,2.28,6.16,4.11,6.16,7.76,0,4.57-3.65,7.53-8.9,7.53a11.75,11.75,0,0,1-3.88-.68c-1.6-.46-2.28-.92-2.51-.92-.68,0-.68.69-.91,1.37h-1.37l-1.14-9.13h1.14a17.62,17.62,0,0,0,2.28,4.34,7.57,7.57,0,0,0,5.94,2.51,4,4,0,0,0,4.33-4.11c0-2.51-1.82-3.65-4.79-5.48l-3.65-2.28c-2.74-1.6-4.34-3.42-4.34-6.39,0-3.88,2.74-7.08,7.76-7.08a10.14,10.14,0,0,1,3.43.69c1.59.46,2.28.91,2.73.91s.69-.68.92-1.37h1.37Zm28.53,17.12h8.22L231,303Zm5.25-17.12L242,318.56a8.31,8.31,0,0,0,1.59,2.74,4.51,4.51,0,0,0,2.29.69v1.37H235.79V322c1.6-.23,2.51-.23,2.51-1.14a1.43,1.43,0,0,0-.22-.92l-1.6-3.88H226l-1.14,3a5.71,5.71,0,0,0-.46,1.6c0,1.37,1.14,1.37,2.51,1.59v1.37h-9.13v-1.37a5.12,5.12,0,0,0,2.51-.91,18.36,18.36,0,0,0,2.28-4.34l8.22-20.31h1.6Zm28.53,3.2a18.88,18.88,0,0,0-2.74.23V311h4.57c3.42-.23,4.79-2,4.79-5.93-.23-4.8-3.19-5.48-6.62-5.48m13.93,23.74h-6.4l-5.7-10.05h-4.57v6.39c0,.92.69,2.06,3.2,2.29v1.37H250.17V322a6.66,6.66,0,0,0,2.06-.46,2,2,0,0,0,1.37-1.83V301c0-1.83-1.83-2.51-3.65-2.51v-1.37h12.78c4.34,0,9.81,3,9.81,8a7.86,7.86,0,0,1-5.47,7.76l4.33,7.07a3.69,3.69,0,0,0,3.43,2.06ZM305,296.88h8v1.37c-2.06.23-3,.91-3,3.19v17.12c0,2.51.45,3,3,3.2v1.37H302.22v-1.37c2.74-.23,3-.91,3-3.65v-15.3l-9.58,20.32h-.92L285.33,303V317c0,2.06.22,3.2.91,3.89a4.48,4.48,0,0,0,2.51.91v1.37h-9.59v-1.37a4.3,4.3,0,0,0,2.51-1.14c.23-.46.69-1.14.69-3.66V301.21c0-1.14,0-2-.69-2.51-.45-.45-1.14-.45-2.28-.68v-1.6h8l8.45,18.95L305,296.88Zm39,0v1.6a3.82,3.82,0,0,0-2.28.68,13.35,13.35,0,0,0-3.2,3.65l-5.71,8.68v7.3c0,1.83.23,2.28.69,2.51.23.23.91.69,3.19.69v1.59H324.82v-1.37c2.28-.22,2.73-.68,3-.91s.46-.91.46-2.74v-6.39l-5-7.3c-1.83-2.51-3-4.11-3.65-5a4.36,4.36,0,0,0-2.74-1.15v-1.59h11.41v1.59h-.69c-.91,0-2.05.23-2.05,1.15a2,2,0,0,0,.68,1.36l5.25,7.77,5.25-7.77a3.19,3.19,0,0,0,.46-1.36c0-.46-.23-.69-.91-.69a6,6,0,0,0-1.6-.23v-1.6H344Z"/></g><path id="Victorinox" class="cls-1" d="M402.42,253.74l11,16.43a12.17,12.17,0,0,0,3.42,3.43,7.82,7.82,0,0,0,3.2,1.14v2.05H401.74v-2.05a11.11,11.11,0,0,0,2.74-.69c1.14-.45,1.37-1.82.45-3l-7.3-10.95-8.45,11.18c-1.59,1.83,0,3.2,1.83,3.43v2.05H377.54v-2.05a8,8,0,0,0,5.71-3.66l11.41-15.29-10.27-15.06a7.74,7.74,0,0,0-6.85-3.88v-2.06h18.72v2.06c-1.83.22-5,.91-3.65,3.42l6.39,9.59,7.3-9.59c1.6-1.83.46-3.2-2.05-3.42v-2.06h13.47v2.06a8.65,8.65,0,0,0-4.57,2.28m-71.67,16c0,8.67,2.74,18.26,11.41,18.26,8.9,0,11.19-9.59,11-18.49-.23-8.45-1.83-17.35-11-17.35-9.59,0-11.41,9.13-11.41,17.58m31.5.68c-.23,11.19-7.76,21.91-19.86,21.91-12.33,0-20.32-9.81-20.54-22.14-.23-11.41,7.76-22.37,20.31-22.37s20.32,11.19,20.09,22.6m-53.19,20.77H318.2l-26.71-31v25.56a3.19,3.19,0,0,0,1.83,2.74,8.64,8.64,0,0,0,3,.92v2.05H281.9v-2.05a6.57,6.57,0,0,0,2.28-.69,3.39,3.39,0,0,0,2.52-3V240.73c-.92-2.06-3.43-4.11-5.71-4.11v-2.06h11l23.51,27.62V240.27c0-2.28-3-3.65-4.8-3.65v-2.06H325v2.06c-3,.23-5.25.91-5.25,3.42v36.52Zm-54.09-5.48c0,1.37.68,2.06,2.05,2.74a12.81,12.81,0,0,0,2.74.92v2.05H253.14v-2.05a29.46,29.46,0,0,0,3.2-.92c1.14-.68,2.05-1.14,2.05-2.74V240c0-2.28-3-3.19-5.25-3.42v-2.06h17.35v2.06c-2.51.45-4.79.91-4.79,3.65v30.81Zm-43.6-32.41c-.46,0-2.06.23-4.57.46v18h7.31c5.25-.46,7.53-3.2,7.53-9.59.23-8-4.57-8.9-10.27-8.9m22.6,37.89H234.2l-9.13-15.75h-7.31v10.27c0,1.6,1.14,3,5.25,3.43l.23,2.05H205.43v-2.05a8,8,0,0,0,3.2-.69,3.23,3.23,0,0,0,2.05-3V240.73c0-2.74-3-3.88-5.7-4.11v-2.06h20.31c7.08,0,15.75,4.8,15.75,12.79,0,4.1-1.82,10.27-8.67,12.32l7.08,11.41a6.5,6.5,0,0,0,5.47,3.2Zm-79.9-21.23c-.22,8.68,2.74,18.27,11.19,18.27,8.9,0,11.18-9.59,11-18.49-.23-8.45-1.6-17.35-11-17.35s-11,8.9-11.19,17.57m31.5.69c-.22,11.18-7.76,21.91-19.85,21.91-12.33,0-20.32-9.81-20.55-22.14-.23-11.41,7.76-22.37,20.32-22.37s20.31,11,20.08,22.6M136.73,238.9v32a3.38,3.38,0,0,0,2.74,3.19,13.79,13.79,0,0,0,3,.69v2.05h-17.8v-2.05a18,18,0,0,0,3-.69,3.22,3.22,0,0,0,2.28-3.19l-.23-31.73H124c-3.43,0-4.34,1.37-5,3a11.71,11.71,0,0,0-.68,3.88h-2.51V235h34.92v11h-2.51a25,25,0,0,0-.91-4.34,3.91,3.91,0,0,0-3.65-2.28h-6.85Zm-28.53-4.34.22,11.42h-2.28c-.68-1.83-1.14-4.11-2.28-5.48-1.6-2.06-3.65-2.74-7.08-2.74-11,0-11.87,11-11.87,17.8,0,7.08,1.37,18.26,12.79,18,3.42,0,8.67-2.06,12.32-6.62l.46-.46,2.28,1.83-.23.22a19.05,19.05,0,0,1-16.2,9.59c-13.47,0-20.32-12.1-20.32-21.91,0-8.22,5-22.14,18-22.14a22.83,22.83,0,0,1,11.87,3l.46-1.82h1.83Zm-45,36.52c0,1.37.68,2.06,2.05,2.74a13,13,0,0,0,2.74.92v2.05H50.67v-2.05c.92-.23,2.51-.69,3.2-.92,1.14-.68,2.05-1.14,2.05-2.74V240c0-2.28-3-3.19-5.25-3.42v-2.06H68v2.06c-2.51.45-4.79.91-4.79,3.65Zm-39.72-4.79L33.1,240c.68-1.83,0-3-3.43-3.42v-2.29H44.05v2.29c-2.51.23-4.56.68-5.7,3.88L24.2,278.16H21L5,240.27a5.29,5.29,0,0,0-5-3.42v-2.29H16.89v2.29c-3,.22-3.42,1.82-3.19,2.73l9.81,26.71Z"/><path class="cls-1" d="M210,200.78c11.87-12.33,23.51-19.86,39.49-25.79a106.26,106.26,0,0,1-5-31.28,108.25,108.25,0,0,1,5.25-32.64c-2.51-1.37-7.76-3.88-13.24-6.84-6.85-3.66-12.78-6.17-15.75-6.85-4.34-.92-8,.45-10,3.88l-.68.68-.46-.91a9.29,9.29,0,0,0-10-3.88c-3,.68-8.9,3.2-15.52,6.85-5.71,3-10.73,5.7-13.24,6.85a117.38,117.38,0,0,1,5,32.86c0,9.82-1.83,19.86-5.25,31.28C190.37,182.29,201.1,191.65,210,200.78ZM188.77,109c4.57-2.28,9.36-4.57,11.87-5,4.79-.92,8.45,3,9.13,5.25l.23.45.23-.45c.45-2.29,4.34-6.17,9.13-5.25,2.51.45,7.3,2.74,11.87,5s8.9,4.56,10.73,5.48a88.87,88.87,0,0,0-4.11,27.16H231v-4.79H216.16V122h-13v14.84H188.32v4.79h-6.4a89.17,89.17,0,0,0-4.1-27.16C179.87,113.58,184.21,111.3,188.77,109Zm-6.85,36.06h6.4v4.8h14.83v14.83h13V149.88H231v-4.8h6.85c0,.46.23,5.48.91,10.73a108.9,108.9,0,0,0,3.2,15.52c-12.1,4.11-23.06,12.1-32,20.55-8.9-8.45-19.86-16.44-32-20.55A107.93,107.93,0,0,0,181.92,145.08Z"/></svg>