<svg xmlns="http://www.w3.org/2000/svg" xmlns:xlink="http://www.w3.org/1999/xlink" version="1.1" x="0px" y="0px" width="145px" height="57px" viewBox="0 0 145 57" xml:space="preserve" class="style0"><style>.style0{enable-background:	new 0 0 145 57;}.style1{fill:	rgb(0,153,255);}</style><path d="M87.162 55.96h-4.814V32.349h4.814V55.96z M83.348 54.96h2.814V33.349h-2.814V54.96z M78.823 56 H67.21V32.349h4.685v19.285h6.928V55.96z M68.21 54.96h9.613v-2.326h-6.928V33.349H68.21V54.96z M62.622 55.96h-4.687v-9.563h-8.266 v9.563H44.98V32.349h4.689v9.725h8.266v-9.725h4.687V55.96z M58.935 54.96h2.687V33.349h-2.687v9.725H48.669v-9.725H45.98V54.96 h2.689v-9.563h10.266V54.96z M36.145 30.602H23.021v-3.955h13.123V30.602z M23.896 29.727H35.27v-2.205H23.896V29.727z M29.594 56.787c-7.875 0-12.124-6.376-12.124-12.375c0-5.996 4.249-12.369 12.124-12.369 c7.873 0 12.1 6.4 12.1 12.369C41.716 50.4 37.5 56.8 29.6 56.787z M29.594 33 c-7.225 0-11.124 5.857-11.124 11.369c0 5.5 3.9 11.4 11.1 11.375c7.224 0 11.122-5.86 11.122-11.375 C40.716 38.9 36.8 33 29.6 33.043z M18.242 56.012H12.31l-7.62-9.062v9.062H0V32.365h4.69v9.092l7.62-9.092h5.932 L8.313 44.188L18.242 56.012z M12.776 55.012h3.32L7.007 44.188l9.089-10.823h-3.32L3.69 44.206L12.776 55.012z M1 55.012h2.69 V33.365H1V55.012z M29.594 53.452c-5.352 0-8.24-4.657-8.24-9.04c0-4.38 2.888-9.034 8.24-9.034s8.24 4.7 8.2 9 C37.834 48.8 34.9 53.5 29.6 53.452z M29.594 36.378c-4.703 0-7.24 4.14-7.24 8.034c0 3.9 2.5 8 7.2 8 c4.702 0 7.24-4.143 7.24-8.04C36.834 40.5 34.3 36.4 29.6 36.378z M94.227 24.742c-7.872 0-12.119-6.373-12.119-12.369 C82.107 6.4 86.4 0 94.2 0s12.119 6.4 12.1 12.373C106.346 18.4 102.1 24.7 94.2 24.742z M94.227 1 c-7.222 0-11.119 5.86-11.119 11.373c0 5.5 3.9 11.4 11.1 11.369s11.119-5.857 11.119-11.369 C105.346 6.9 101.4 1 94.2 1z M40.124 24.196h-4.978l-5.4-15.462l-5.439 15.462h-4.971l8.738-23.651h3.312L40.124 24.196z M35.856 23.196h2.832L30.691 1.545h-1.92l-7.999 21.651h2.827L29.75 5.711L35.856 23.196z M17.167 24.196h-5.399l-4.132-6.795 H4.708v6.795H0V0.545h8.598c4.828 0 8.5 3.6 8.5 8.429c0 3.266-1.769 6.174-4.553 7.567L17.167 24.196z M12.33 23.196h3.059 l-4.326-7.116l0.54-0.223c2.753-1.138 4.464-3.775 4.464-6.884c0-4.305-3.141-7.429-7.468-7.429H1v21.651h2.708v-6.795h4.49 L12.33 23.196z M132.852 24.192h-7.789V0.549h7.789c7.891 0 12.1 6.1 12.1 11.824C145 18.1 140.7 24.2 132.9 24.192z M126.062 23.192h6.789c7.319 0 11.148-5.443 11.148-10.819c0-5.379-3.829-10.824-11.148-10.824h-6.789V23.192z M121.516 24.2 h-11.623V0.549h4.69v19.315h6.933V24.192z M110.893 23.192h9.623v-2.328h-6.933V1.549h-2.69V23.192z M67.462 24.192h-4.696V0.549 h8.559c4.806 0 8.4 3.6 8.4 8.425c0 4.805-3.624 8.428-8.43 8.428h-3.863V24.192z M63.766 23.192h2.696v-6.791h4.863 c4.305 0 7.43-3.124 7.43-7.428c0-4.302-3.125-7.425-7.43-7.425h-7.559V23.192z M46.997 24.192h-4.689V0.549h8.553 c4.807 0 8.4 3.6 8.4 8.425c0 4.805-3.625 8.428-8.431 8.428h-3.864V24.192z M43.308 23.192h2.689v-6.791h4.864 c4.306 0 7.431-3.124 7.431-7.428c0-4.302-3.125-7.425-7.431-7.425h-7.553V23.192z M94.227 21.412c-5.349 0-8.235-4.657-8.235-9.039 c0-4.383 2.887-9.041 8.235-9.041c5.351 0 8.2 4.7 8.2 9.041C102.464 16.8 99.6 21.4 94.2 21.412z M94.227 4.3 c-4.699 0-7.235 4.143-7.235 8.041c0 3.9 2.5 8 7.2 8.039c4.701 0 7.237-4.142 7.237-8.039 C101.464 8.5 98.9 4.3 94.2 4.332z M132.852 20.864h-4.098V3.883h4.098c5.433 0 8.4 4.4 8.4 8.5 C141.215 16.5 138.3 20.9 132.9 20.864z M129.754 19.864h3.098c4.782 0 7.363-3.86 7.363-7.491 c0-3.631-2.581-7.49-7.363-7.49h-3.098V19.864z M71.325 14.067h-4.863V3.883h4.863c2.699 0 4.7 2.2 4.7 5.1 C76.061 11.9 74 14.1 71.3 14.067z M67.462 13.067h3.863c2.452 0 3.735-2.06 3.735-4.094c0-2.033-1.283-4.091-3.735-4.091 h-3.863V13.067z M50.861 14.067h-4.864V3.883h4.864c2.702 0 4.7 2.2 4.7 5.091C55.601 11.9 53.6 14.1 50.9 14.067z M46.997 13.067h3.864c2.456 0 3.74-2.06 3.74-4.094c0-2.033-1.285-4.091-3.74-4.091h-3.864V13.067z M8.598 14.067h-4.89V3.877h4.89 c2.714 0 4.8 2.2 4.8 5.097C13.359 11.9 11.3 14.1 8.6 14.067z M4.708 13.067h3.89c2.469 0 3.761-2.06 3.761-4.094 c0-2.036-1.292-4.097-3.761-4.097h-3.89V13.067z" class="style1"/></svg>