<svg id="Layer_1" data-name="Layer 1" xmlns="http://www.w3.org/2000/svg" viewBox="0 0 150 100"><defs><style>.cls-1{fill:#292626;}</style></defs><path class="cls-1" d="M76.34,28.47A1.94,1.94,0,0,1,75,29a2,2,0,0,1-1.48-.67L59.66,39.26a2.47,2.47,0,0,1-1.06,3.48l9.47,22.42A3.18,3.18,0,0,1,69,65a3,3,0,0,1,2.64,1.6l19.2-8.2L89.65,41A3,3,0,0,1,87,38a3.14,3.14,0,0,1,.26-1.22Zm.53,32.11A4.5,4.5,0,0,1,74,59a5.12,5.12,0,0,1-1-3.13V52.1c0-1.4,0-2.8,0-4.21,0-.3,0-.53-.41-.44h-.1l-1.83-.07c0-.62,0-1.24,0-1.85,0-.81,0-.79.81-.83a14.18,14.18,0,0,0,1.58-.19.27.27,0,0,0,.15-.19c.08-.76.13-1.51.2-2.27q.09-.84.21-1.68a.23.23,0,0,1,.18-.16h2.54c.27,0,.2.2.21.35v3.23c0,.73,0,.73.79.73q1.52,0,3,0c.2,0,.3,0,.29.26,0,.79,0,1.57,0,2.35,0,.25-.06.34-.33.34-.94,0-1.89,0-2.83,0a5.8,5.8,0,0,1-.59,0c-.3,0-.38.08-.38.38,0,1.82,0,3.65,0,5.48,0,.49,0,1,0,1.47a10.67,10.67,0,0,0,.2,1.38A2,2,0,0,0,78,57.62a9.28,9.28,0,0,0,2.6-.09l.5,2.36A7.15,7.15,0,0,1,76.87,60.58Z"/><path class="cls-1" d="M90.15,41l1.18,17.2L97,55.76a1.09,1.09,0,0,1,0-.26,1.47,1.47,0,0,1,.4-1L90.65,40.93A4,4,0,0,1,90.15,41Z"/><path class="cls-1" d="M89,66a2,2,0,0,1,2-2l.23,0-.35-5.09-19,8.13A3.25,3.25,0,0,1,72,68a2.94,2.94,0,0,1-.4,1.47l9.87,7.9c.46-.1.91-.21,1.36-.33l6.77-9.61A2,2,0,0,1,89,66Z"/><path class="cls-1" d="M75,25a2,2,0,0,1,1.71,1l10.71-2.23,0-.15a42.19,42.19,0,0,0-8-2.33,22.48,22.48,0,0,0-10.93.6l5,3.82A2,2,0,0,1,75,25Z"/><path class="cls-1" d="M57.5,38a2.48,2.48,0,0,1,1.87.85L73.23,27.92A2.05,2.05,0,0,1,73,27a1.93,1.93,0,0,1,.22-.9L67.88,22A28.5,28.5,0,0,0,53.7,31.15l3,7A2.32,2.32,0,0,1,57.5,38Z"/><path class="cls-1" d="M91.74,64.14A2,2,0,0,1,93,65.83l5.47,0L98.31,57a1.48,1.48,0,0,1-1.11-.75l-5.83,2.49Z"/><path class="cls-1" d="M91,68a2,2,0,0,1-1-.28l-6.4,9.11A28.61,28.61,0,0,0,98.45,66.38l-5.48,0A2,2,0,0,1,91,68Z"/><path class="cls-1" d="M103.93,47.57l-4.35,6.9a1.48,1.48,0,0,1,.42,1A1.5,1.5,0,0,1,98.81,57l.13,8.71A28.36,28.36,0,0,0,104,49.5C104,48.85,104,48.21,103.93,47.57Z"/><path class="cls-1" d="M103.85,46.76a28.48,28.48,0,0,0-2.32-8.84H93s0,0,0,.08a3,3,0,0,1-1.87,2.78l6.67,13.4a1.45,1.45,0,0,1,1.38,0Z"/><path class="cls-1" d="M88,23.86l.06.28-11.1,2.31a1.9,1.9,0,0,1-.24,1.65L87.5,36.34a3,3,0,0,1,1.41-1.13l0-.15.49-.07,0,.07A2.91,2.91,0,0,1,90,35a3,3,0,0,1,2.94,2.42h8.36A28.61,28.61,0,0,0,88,23.86Z"/><path class="cls-1" d="M67.08,65.71a2.7,2.7,0,0,1,.53-.35L58.13,42.91a2.59,2.59,0,0,1-.63.09,2.49,2.49,0,0,1-1.35-.4l-4.41,6.73A1,1,0,0,1,52,50a1,1,0,0,1-.15.5Z"/><path class="cls-1" d="M69,71a2.86,2.86,0,0,1-1.24-.28L64.93,76a28.39,28.39,0,0,0,15.9,1.52l-9.51-7.61A3,3,0,0,1,69,71Z"/><path class="cls-1" d="M66.73,66.06,51.5,50.85A1,1,0,0,1,51,51a1,1,0,0,1-1-1v.25H47A28.33,28.33,0,0,0,51,64l15.25,2.88A3.37,3.37,0,0,1,66.73,66.06Z"/><path class="cls-1" d="M51,49a1.13,1.13,0,0,1,.32.06l4.44-6.77a2.48,2.48,0,0,1,.45-3.92l-2.87-6.79A28.41,28.41,0,0,0,47,49.5c0,.08,0,.17,0,.25h3V50A1,1,0,0,1,51,49Z"/><path class="cls-1" d="M66,68a2.65,2.65,0,0,1,.08-.63L51.32,64.59A28.64,28.64,0,0,0,64.46,75.78l2.86-5.3A3,3,0,0,1,66,68Z"/></svg>