<?xml version="1.0" encoding="utf-8"?>
<!-- Generator: Adobe Illustrator 24.0.3, SVG Export Plug-In . SVG Version: 6.00 Build 0)  -->
<svg version="1.1" id="Layer_1" xmlns="http://www.w3.org/2000/svg" xmlns:xlink="http://www.w3.org/1999/xlink" x="0px" y="0px"
	 viewBox="0 0 1014 262.8" style="enable-background:new 0 0 1014 262.8;" xml:space="preserve">
<style type="text/css">
	.st0{fill:#FFFFFF;}
</style>
<g>
	<path class="st0" d="M393.5,189.1c-0.2-0.9-0.7-1.6-1.5-2c-0.5-0.2-0.9-0.3-1.4-0.3c-0.4,0-0.7,0.1-1.1,0.2c-2,0.8-4.8,1.7-8.3,2.7
		c-3.3,0.9-7.2,1.4-11.6,1.4c-5.8,0-9.7-1.5-12-4.5c-2.4-3.3-3.6-9.1-3.6-17.3v-42.1h36.4c1.6,0,3-1.4,3-3v-21.4c0-1.6-1.4-3-3-3
		H354V69.3c0-0.9-0.4-1.7-1.1-2.3c-0.6-0.5-1.2-0.7-1.9-0.7c-0.2,0-0.3,0-0.5,0.1l-25.6,4.3c-1.5,0.2-2.5,1.5-2.5,2.9v95.8
		c0,7.5,0.7,14.3,2,20.2c1.4,6.1,3.7,11.4,7.1,15.8c3.4,4.4,8.1,7.9,13.8,10.1c5.6,2.3,12.6,3.4,20.9,3.4c6.7,0,12.7-0.7,17.7-2.1
		c4.9-1.4,9-2.7,12-4c1.3-0.6,2-2,1.8-3.4L393.5,189.1L393.5,189.1z M507.9,99.7h-25.6c-1.6,0-3,1.4-3,3v87.1c-1.4,0.2-3,0.4-5,0.6
		c-3.3,0.3-6.6,0.4-9.6,0.4c-7.6,0-12.8-2-15.6-6.3c-3.1-4.5-4.6-12.5-4.6-23.7v-58c0-1.6-1.4-3-3-3h-25.6c-1.6,0-3,1.4-3,3v62
		c0,7.7,0.8,14.9,2.4,21.4c1.6,6.7,4.4,12.5,8.3,17.3c3.9,4.9,9.1,8.7,15.6,11.5c6.3,2.7,14.2,4,23.5,4c9.6,0,18.5-0.7,26.5-2
		c7.9-1.4,14.5-2.7,19.5-4c1.3-0.3,2.3-1.5,2.3-2.9V102.7C510.9,101,509.6,99.7,507.9,99.7L507.9,99.7z M601.4,189.1
		c-0.2-0.9-0.7-1.6-1.5-2c-0.5-0.2-0.9-0.3-1.4-0.3c-0.4,0-0.7,0.1-1.1,0.2c-2,0.8-4.8,1.7-8.3,2.7c-3.3,0.9-7.2,1.4-11.6,1.4
		c-5.8,0-9.7-1.5-12-4.5c-2.4-3.3-3.6-9.1-3.6-17.3v-42.1h36.4c1.6,0,3-1.4,3-3v-21.4c0-1.6-1.4-3-3-3h-36.4V69.3
		c0-0.9-0.4-1.7-1.1-2.3c-0.6-0.5-1.2-0.7-1.9-0.7c-0.2,0-0.3,0-0.5,0.1l-25.6,4.3c-1.5,0.2-2.5,1.5-2.5,2.9v95.8
		c0,7.5,0.7,14.3,2,20.2c1.4,6.1,3.7,11.4,7.1,15.8c3.4,4.4,8.1,7.9,13.8,10.1c5.6,2.3,12.6,3.4,20.9,3.4c6.7,0,12.7-0.7,17.7-2.1
		c4.9-1.4,9-2.7,12-4c1.3-0.6,2-2,1.8-3.4L601.4,189.1L601.4,189.1z M690.9,189.1c-0.2-0.9-0.7-1.6-1.5-2c-0.5-0.2-0.9-0.3-1.4-0.3
		c-0.4,0-0.7,0.1-1.1,0.2c-2,0.8-4.8,1.7-8.3,2.7c-3.3,0.9-7.2,1.4-11.6,1.4c-5.8,0-9.7-1.5-12-4.5c-2.4-3.3-3.6-9.1-3.6-17.3v-42.1
		h36.4c1.6,0,3-1.4,3-3v-21.4c0-1.6-1.4-3-3-3h-36.4V69.3c0-0.9-0.4-1.7-1.1-2.3c-0.6-0.5-1.2-0.7-1.9-0.7c-0.2,0-0.3,0-0.5,0.1
		l-25.6,4.3c-1.5,0.2-2.5,1.5-2.5,2.9v95.8c0,7.5,0.7,14.3,2,20.2c1.4,6.1,3.7,11.4,7.1,15.8c3.4,4.4,8.1,7.9,13.8,10.1
		c5.6,2.3,12.6,3.4,20.9,3.4c6.7,0,12.7-0.7,17.7-2.1c4.9-1.4,9-2.7,12-4c1.3-0.6,2-2,1.8-3.4L690.9,189.1L690.9,189.1z M725.4,51.5
		c-5.1,0-9.6,1.7-13.3,5c-3.7,3.4-5.7,8-5.7,13.9c0,5.7,1.9,10.3,5.7,13.7c3.6,3.3,8.1,5,13.3,5c5,0,9.4-1.7,13-5
		c3.7-3.4,5.7-8,5.7-13.7c0-5.8-1.9-10.5-5.6-13.9C734.8,53.1,730.4,51.5,725.4,51.5L725.4,51.5z M738.3,99.7h-25.6
		c-1.6,0-3,1.4-3,3v110.7c0,1.6,1.4,3,3,3h25.6c1.6,0,3-1.4,3-3V102.7C741.3,101,740,99.7,738.3,99.7z M778.7,179.5
		c-5.6,0-10.4,1.9-14.2,5.6c-3.9,3.7-5.8,8.6-5.8,14.3c0,5.8,1.9,10.5,5.8,14.2c3.8,3.6,8.6,5.5,14.2,5.5c5.4,0,10.1-1.8,14-5.4
		c3.9-3.7,6-8.5,6-14.3s-2-10.6-5.9-14.3C788.9,181.4,784.2,179.5,778.7,179.5L778.7,179.5z M898,189.5c-0.2-0.9-0.7-1.6-1.5-2.1
		c-0.5-0.2-1-0.4-1.4-0.4c-0.4,0-0.7,0.1-1.1,0.2c-2.9,1.2-6.3,2.2-10.3,2.9c-4,0.8-8,1.2-12.1,1.2c-10.5,0-18-2.8-22.2-8.3
		c-4.4-5.7-6.7-13.8-6.7-23.9c0-10.5,2.4-18.6,7-24.2c4.6-5.5,11.2-8.2,20.2-8.2c3.9,0,7.7,0.4,11.1,1.2c3.5,0.8,6.6,1.8,9.4,2.9
		c0.4,0.2,0.8,0.2,1.2,0.2c0.5,0,0.9-0.1,1.3-0.3c0.8-0.4,1.4-1.1,1.6-1.9l5.4-20.6c0.4-1.4-0.3-2.9-1.8-3.5
		c-9.5-3.9-19.7-5.8-30.3-5.8c-8.7,0-16.7,1.5-23.6,4.6c-7,3.1-13,7.4-18,12.8c-4.9,5.4-8.7,11.8-11.3,19.2
		c-2.6,7.3-3.9,15.2-3.9,23.6c0,8.4,1.2,16.4,3.5,23.7c2.3,7.4,6,13.8,10.7,19.2c4.8,5.4,10.9,9.6,18.1,12.6
		c7.2,3,15.8,4.5,25.4,4.5c6.1,0,12.2-0.6,18-1.7c6-1.2,10.3-2.5,13.3-4c1.2-0.6,1.8-1.9,1.6-3.1L898,189.5L898,189.5z
		 M1011.8,131.3c-1.5-6.5-4.3-12.2-7.9-16.8c-3.7-4.8-8.8-8.4-15-11.1c-6.1-2.6-13.8-3.9-22.9-3.9c-3.7,0-7.7,0.3-11.4,1.1
		c-2.2,0.4-4.3,0.9-6.2,1.4V52.1c0-0.9-0.4-1.7-1-2.3c-0.5-0.5-1.2-0.7-1.9-0.7c-0.2,0-0.3,0-0.5,0.1l-25.2,4.1
		c-1.4,0.2-2.5,1.5-2.5,2.9v157.3c0,1.6,1.3,2.9,2.9,2.9h25.2c1.6,0,2.9-1.3,2.9-2.9v-84.3c1.4-0.3,3.2-0.8,5.3-1.2
		c3.3-0.7,6.5-1,9.6-1c3.9,0,7.1,0.5,9.7,1.5c2.4,1,4.2,2.4,5.6,4.5c1.5,2.2,2.6,5.2,3.3,8.9c0.7,3.9,1.1,8.7,1.1,14.3v57.2
		c0,1.6,1.3,2.9,2.9,2.9h25.2c1.6,0,2.9-1.3,2.9-2.9v-61.2C1014.1,144.6,1013.4,137.5,1011.8,131.3L1011.8,131.3z"/>
	<path class="st0" d="M236,41.4L86.1,1.2C66.7-3.9,46.6,7.6,41.4,27L1.2,176.9c-5.2,19.2,6.4,39.2,25.6,44.3L70.8,233
		c-3.3-4.9-5.7-10.6-7.1-17c-1.6-7.2-2.4-15.4-2.4-24.6V75.1c0-1.8,1.2-3.3,3-3.6l31.1-5.2c0.2-0.1,0.4-0.1,0.6-0.1
		c0.8,0,1.7,0.3,2.3,0.9c0.8,0.7,1.3,1.7,1.3,2.8v36.9h44.2c2,0,3.6,1.7,3.6,3.6v25.9c0,2-1.7,3.6-3.6,3.6H99.6v51
		c0,10,1.4,17,4.4,21c2.7,3.6,7.4,5.4,14.5,5.4c5.3,0,10-0.6,14-1.7c4.2-1.2,7.6-2.3,10-3.2c0.5-0.2,0.9-0.3,1.4-0.3
		c0.6,0,1.2,0.1,1.7,0.4c1,0.5,1.7,1.4,1.9,2.5l5.2,24.8c0.3,1.7-0.6,3.4-2.1,4.1c-3.7,1.6-8.7,3.2-14.6,4.9
		c-0.9,0.2-1.9,0.5-2.9,0.7l43.9,11.8c19.2,5.2,39.2-6.4,44.3-25.6l40.2-150.2C266.7,66.5,255.1,46.5,236,41.4z"/>
</g>
</svg>
