<svg xmlns="http://www.w3.org/2000/svg" xmlns:xlink="http://www.w3.org/1999/xlink" version="1.1" width="137" height="94">
    <g id="Header" stroke="none" stroke-width="1" fill="none" fill-rule="evenodd">
        <g transform="translate(-260.000000, -199.000000)" fill-rule="nonzero" id="Comp/Header/Max-L/default">
            <g transform="translate(114.000000, 136.000000)">
                <g id="Header/CH">
                    <g id="Navigation-Main">
                        <g id="victorinox-logo" transform="translate(146.000000, 63.000000)">
                            <g>
                                <path d="M131.266848,52.4670051 L134.840761,57.7940338 C135.213043,58.3119394 135.585326,58.6818719 135.957609,58.9038314 C136.180978,59.0518045 136.702174,59.273764 137,59.273764 L137,59.9396426 L131.043478,59.9396426 L131.043478,59.273764 C131.043478,59.273764 131.63913,59.1997775 131.936957,59.0518045 C132.309239,58.9038314 132.383696,58.4599124 132.08587,58.0899798 L129.703261,54.5386274 L126.94837,58.1639663 C126.427174,58.7558584 126.94837,59.1997775 127.544022,59.273764 L127.544022,59.9396426 L123.151087,59.9396426 L123.151087,59.273764 C124.119022,59.125791 124.565761,58.6818719 125.0125,58.0899798 L128.735326,53.1328837 L125.384783,48.249774 C124.863587,47.4359224 124.119022,46.9920033 123.151087,46.9920033 L123.151087,46.3261247 L129.256522,46.3261247 L129.256522,46.9920033 C128.66087,47.0659898 127.618478,47.2879494 128.065217,48.101801 L130.15,51.2092344 L132.532609,48.101801 C133.053804,47.5099089 132.681522,47.0659898 131.8625,46.9920033 L131.8625,46.3261247 L136.255435,46.3261247 L136.255435,46.9920033 C135.659783,47.0659898 135.213043,47.3619359 134.766304,47.7318684 L131.266848,52.4670051 Z M111.386957,52.9109241 C111.386957,55.7224115 112.280435,58.8298449 115.109783,58.8298449 C118.013587,58.8298449 118.758152,55.7224115 118.683696,52.8369376 C118.609239,50.0994368 118.088043,47.2139629 115.109783,47.2139629 C111.982609,47.2139629 111.386957,50.1734233 111.386957,52.9109241 L111.386957,52.9109241 Z M121.661957,53.1328837 C121.5875,56.7582227 119.130435,60.2355886 115.184239,60.2355886 C111.163587,60.2355886 108.557609,57.0541687 108.483152,53.0588972 C108.408696,49.3595717 111.014674,45.8082192 115.109783,45.8082192 C119.204891,45.8082192 121.736413,49.4335582 121.661957,53.1328837 L121.661957,53.1328837 Z M104.313587,59.8656561 L103.792391,59.8656561 L95.0809783,49.8034907 L95.0809783,58.0899798 C95.0809783,58.4599124 95.3043478,58.7558584 95.6766304,58.977818 C96.048913,59.1997775 96.3467391,59.1997775 96.6445652,59.273764 L96.6445652,59.9396426 L91.9538043,59.9396426 L91.9538043,59.273764 C92.2516304,59.1997775 92.475,59.1997775 92.6983696,59.0518045 C93.1451087,58.9038314 93.5173913,58.5338989 93.5173913,58.0899798 L93.5173913,48.249774 C93.2195652,47.5838954 92.4005435,46.9180168 91.6559783,46.9180168 L91.6559783,46.2521382 L95.2298913,46.2521382 L102.898913,55.2045059 L102.898913,48.101801 C102.898913,47.3619359 101.930978,46.9180168 101.335326,46.9180168 L101.335326,46.2521382 L106.026087,46.2521382 L106.026087,46.9180168 C105.058152,46.9920033 104.313587,47.2139629 104.313587,48.0278145 L104.313587,59.8656561 L104.313587,59.8656561 Z M86.6673913,58.0899798 C86.6673913,58.5338989 86.8907609,58.7558584 87.3375,58.977818 C87.6353261,59.125791 87.9331522,59.1997775 88.2309783,59.273764 L88.2309783,59.9396426 L82.5722826,59.9396426 L82.5722826,59.273764 C82.8701087,59.1997775 83.4657609,59.0518045 83.6146739,58.977818 C83.9869565,58.7558584 84.2847826,58.6078854 84.2847826,58.0899798 L84.2847826,48.0278145 C84.2847826,47.2879494 83.3168478,46.9920033 82.5722826,46.9180168 L82.5722826,46.2521382 L88.2309783,46.2521382 L88.2309783,46.9180168 C87.4119565,47.0659898 86.6673913,47.2139629 86.6673913,48.101801 L86.6673913,58.0899798 L86.6673913,58.0899798 Z M72.4461957,47.5838954 C72.2972826,47.5838954 71.776087,47.6578819 70.9570652,47.7318684 L70.9570652,53.5768027 L73.3396739,53.5768027 C75.0521739,53.4288297 75.7967391,52.5409916 75.7967391,50.4693693 C75.8711957,47.8798415 74.3076087,47.5838954 72.4461957,47.5838954 L72.4461957,47.5838954 Z M79.8173913,59.8656561 L76.3923913,59.8656561 L73.4141304,54.7605869 L71.0315217,54.7605869 L71.0315217,58.0899798 C71.0315217,58.6078854 71.4038043,59.0518045 72.7440217,59.1997775 L72.8184783,59.8656561 L67.0108696,59.8656561 L67.0108696,59.1997775 C67.3086957,59.1997775 67.7554348,59.125791 68.0532609,58.977818 C68.4255435,58.8298449 68.7233696,58.4599124 68.7233696,58.0159933 L68.7233696,48.249774 C68.7233696,47.3619359 67.7554348,46.9920033 66.8619565,46.9180168 L66.8619565,46.2521382 L73.488587,46.2521382 C75.7967391,46.2521382 78.626087,47.8058549 78.626087,50.3953828 C78.626087,51.72714 78.0304348,53.7247757 75.7967391,54.3906543 L78.1048913,58.0899798 C78.4771739,58.6818719 78.9983696,59.0518045 79.8918478,59.125791 L79.8173913,59.8656561 L79.8173913,59.8656561 Z M53.7576087,52.9849106 C53.6831522,55.796398 54.651087,58.9038314 57.4059783,58.9038314 C60.3097826,58.9038314 61.0543478,55.796398 60.9798913,52.9109241 C60.9054348,50.1734233 60.4586957,47.2879494 57.4059783,47.2879494 C54.3532609,47.2879494 53.8320652,50.1734233 53.7576087,52.9849106 L53.7576087,52.9849106 Z M64.0326087,53.2068702 C63.9581522,56.8322092 61.501087,60.3095751 57.5548913,60.3095751 C53.5342391,60.3095751 50.9282609,57.1281552 50.8538043,53.1328837 C50.7793478,49.4335582 53.3853261,45.8822057 57.4804348,45.8822057 C61.5755435,45.8822057 64.1070652,49.4335582 64.0326087,53.2068702 L64.0326087,53.2068702 Z M44.5994565,47.6578819 L44.5994565,58.0159933 C44.5994565,58.5338989 44.9717391,58.9038314 45.4929348,59.0518045 C45.7907609,59.1997775 46.1630435,59.1997775 46.4608696,59.273764 L46.4608696,59.9396426 L40.6532609,59.9396426 L40.6532609,59.273764 C40.951087,59.1997775 41.248913,59.1997775 41.6211957,59.0518045 C42.0679348,58.9038314 42.3657609,58.5338989 42.3657609,58.0159933 L42.2913043,47.7318684 L40.4298913,47.7318684 C39.3130435,47.7318684 39.0152174,48.1757875 38.7918478,48.6936931 C38.6429348,49.1376121 38.5684783,49.5075447 38.5684783,49.9514637 L37.7494565,49.9514637 L37.7494565,46.4001113 L49.1413043,46.4001113 L49.1413043,49.9514637 L48.3222826,49.9514637 C48.2478261,49.5075447 48.1733696,48.9156526 48.0244565,48.54572 C47.7266304,48.0278145 47.3543478,47.8058549 46.8331522,47.8058549 L44.5994565,47.8058549 L44.5994565,47.6578819 Z M35.2923913,46.2521382 L35.3668478,49.9514637 L34.6222826,49.9514637 C34.398913,49.3595717 34.25,48.6197066 33.8777174,48.1757875 C33.3565217,47.5099089 32.686413,47.2879494 31.5695652,47.2879494 C27.9956522,47.2879494 27.6978261,50.8393019 27.6978261,53.0588972 C27.6978261,55.352479 28.1445652,58.977818 31.8673913,58.9038314 C32.9842391,58.9038314 34.6967391,58.2379529 35.8880435,56.7582227 L36.0369565,56.6102496 L36.7815217,57.2021417 L36.7070652,57.2761282 C35.4413043,59.56971 32.9842391,60.3835616 31.4206522,60.3835616 C27.0277174,60.3835616 24.7940217,56.4622766 24.7940217,53.2808567 C24.7940217,50.6173423 26.4320652,46.1041652 30.676087,46.1041652 C32.3141304,46.1041652 33.5054348,46.4740978 34.5478261,47.0659898 L34.6967391,46.4740978 L35.2923913,46.4740978 L35.2923913,46.2521382 Z M20.6244565,58.0899798 C20.6244565,58.5338989 20.8478261,58.7558584 21.2945652,58.977818 C21.5923913,59.125791 21.8902174,59.1997775 22.1880435,59.273764 L22.1880435,59.9396426 L16.5293478,59.9396426 L16.5293478,59.273764 C16.8271739,59.1997775 17.3483696,59.0518045 17.5717391,58.977818 C17.9440217,58.7558584 18.2418478,58.6078854 18.2418478,58.0899798 L18.2418478,48.0278145 C18.2418478,47.2879494 17.273913,46.9920033 16.5293478,46.9180168 L16.5293478,46.2521382 L22.1880435,46.2521382 L22.1880435,46.9180168 C21.3690217,47.0659898 20.6244565,47.2139629 20.6244565,48.101801 L20.6244565,58.0899798 L20.6244565,58.0899798 Z M7.66902174,56.5362631 L10.7961957,48.0278145 C11.0195652,47.4359224 10.7961957,47.0659898 9.67934783,46.9180168 L9.67934783,46.1781517 L14.3701087,46.1781517 L14.3701087,46.9180168 C13.551087,46.9920033 12.8809783,47.1399764 12.5086957,48.1757875 L7.8923913,60.3835616 L6.85,60.3835616 L1.63804348,48.101801 C1.19130435,47.0659898 0.297826087,46.9920033 0,46.9920033 L0,46.2521382 L5.50978261,46.2521382 L5.50978261,46.9920033 C4.54184783,47.0659898 4.39293478,47.5838954 4.4673913,47.8798415 L7.66902174,56.5362631 L7.66902174,56.5362631 Z" id="Victorinox" fill="#000000"/>
                                <g id="Shield" transform="translate(55.208955, 0.000000)">
                                    <path d="M2.0143808,15.8157971 C2.0143808,12.0501312 1.41752723,8.35977849 0.298426785,4.9706791 L0.298426785,4.89536578 C1.19370714,4.44348586 2.98426785,3.53972603 4.77482856,2.56065287 C6.71460266,1.50626639 8.87819685,0.527193238 9.9226906,0.301253279 C11.3402178,1.38777878e-16 12.6085317,0.451879918 13.4292053,1.65689303 C14.249879,0.451879918 15.5181928,1.38777878e-16 16.93572,0.301253279 C18.0548205,0.527193238 20.143808,1.50626639 22.0835821,2.56065287 C23.8741428,3.53972603 25.6647035,4.44348586 26.5599839,4.89536578 L26.5599839,4.9706791 C25.4408834,8.43509181 24.8440299,12.0501312 24.8440299,15.8157971 C24.8440299,19.4308365 25.5154901,22.8952492 26.5599839,26.2090353 L26.5599839,26.2843486 C20.5914482,28.5437482 16.93572,31.2550277 13.503812,34.9453804 L13.4292053,34.9453804 C9.9972973,31.330341 6.34156918,28.5437482 0.373033481,26.2843486 L0.373033481,26.2090353 C1.34292053,22.8952492 2.0143808,19.4308365 2.0143808,15.8157971" id="Path" fill="#FFFFFF"/>
                                    <path d="M0.522246874,26.1337219 C7.01302945,28.5437482 10.5195442,31.6315943 13.4292053,34.6441271 C17.3087535,30.5772078 21.113695,28.0918683 26.3361638,26.1337219 C25.2170633,22.4433693 24.6948165,19.0542699 24.6948165,15.8157971 C24.6948165,12.2760711 25.29167,8.58571845 26.4107705,5.04599242 C25.5900968,4.5941125 23.8741428,3.76566599 22.0835821,2.78659283 C19.8453812,1.58157971 17.9056071,0.753133197 16.93572,0.527193238 C15.5181928,0.225939959 14.3244857,0.677819878 13.6530254,1.80751967 L13.4292053,2.03345963 L13.2799919,1.73220635 C12.6085317,0.677819878 11.3402178,0.150626639 9.9972973,0.451879918 C9.02741025,0.677819878 7.08763614,1.50626639 4.92404195,2.71127951 C3.05887455,3.69035267 1.41752723,4.5941125 0.59685357,4.9706791 C1.64134732,8.58571845 2.23820089,12.2007578 2.23820089,15.8157971 C2.23820089,19.0542699 1.64134732,22.368056 0.522246874,26.1337219 L0.522246874,26.1337219 Z M13.5784187,35.0206937 L13.2799919,35.0206937 C10.3703308,32.0081609 6.78920936,28.8450015 0.298426785,26.4349752 L0.223820089,26.4349752 L0.149213392,26.2090353 L0.149213392,26.1337219 C1.26831384,22.368056 1.79056071,19.0542699 1.79056071,15.8157971 C1.79056071,12.2007578 1.19370714,8.58571845 0.0746066962,5.04599242 L0.0746066962,4.9706791 L0.149213392,4.74473914 L0.223820089,4.74473914 C1.04449375,4.36817254 2.76044776,3.46441271 4.70022186,2.41002623 C6.93842275,1.20501312 8.95280355,0.301253279 9.9226906,0.150626639 C11.3402178,-0.150626639 12.6831384,0.301253279 13.503812,1.35563976 C14.3244857,0.301253279 15.5927995,-0.150626639 17.0849334,0.150626639 C18.0548205,0.376566599 19.9945946,1.20501312 22.3074022,2.41002623 C24.2471763,3.46441271 25.9631303,4.36817254 26.783804,4.74473914 L26.8584106,4.74473914 L26.9330173,4.9706791 L26.9330173,5.04599242 C25.8139169,8.66103177 25.2170633,12.2760711 25.2170633,15.8157971 C25.2170633,19.0542699 25.7393102,22.4433693 26.9330173,26.1337219 L26.9330173,26.2090353 L26.8584106,26.4349752 L26.783804,26.4349752 C21.3375151,28.3931215 17.5325736,30.8784611 13.5784187,35.0206937 Z M20.3676281,4.36817254 C18.8754942,3.61503935 17.3087535,2.86190615 16.4880799,2.71127951 C14.9213392,2.41002623 13.6530254,3.69035267 13.503812,4.44348586 L13.4292053,4.5941125 L13.3545986,4.44348586 C13.1307785,3.69035267 11.9370714,2.41002623 10.3703308,2.71127951 C9.54965712,2.86190615 7.9829165,3.61503935 6.49078257,4.36817254 C4.99864865,5.12130574 3.58112142,5.87443894 2.90966115,6.17569222 C3.80494151,9.03759837 4.25258169,11.9748178 4.25258169,15.1379773 L6.34156918,15.1379773 L6.34156918,13.5563976 L11.1910044,13.5563976 L11.1910044,8.66103177 L15.4435861,8.66103177 L15.4435861,13.5563976 L20.2930214,13.5563976 L20.2930214,15.1379773 L22.5312223,15.1379773 C22.5312223,11.9748178 22.9788624,9.03759837 23.8741428,6.17569222 C23.2772892,5.87443894 21.859762,5.12130574 20.3676281,4.36817254 L20.3676281,4.36817254 Z M13.4292053,31.7069076 C16.3388665,28.9203148 19.9199879,26.2843486 23.8741428,24.9287088 C23.5011093,23.5730691 23.0534691,21.6902361 22.8296491,19.8074031 C22.605829,18.0751967 22.5312223,16.4183037 22.5312223,16.2676771 L20.2930214,16.2676771 L20.2930214,17.8492568 L15.4435861,17.8492568 L15.4435861,22.7446226 L11.1910044,22.7446226 L11.1910044,17.8492568 L6.34156918,17.8492568 L6.34156918,16.2676771 L4.25258169,16.2676771 C4.17797499,19.1295832 3.73033481,22.368056 2.98426785,24.9287088 C6.93842275,26.2843486 10.5195442,28.9203148 13.4292053,31.7069076 L13.4292053,31.7069076 Z" id="Shape" fill="#B10034"/>
                                </g>
                            </g>
                        </g>
                    </g>
                </g>
            </g>
        </g>
    </g>
</svg>
