<svg id="Layer_1" data-name="Layer 1" xmlns="http://www.w3.org/2000/svg" viewBox="0 0 323.3 198.56"><title>logo</title><path d="M254.1,142c-7.3-4.58-9.29-10.12-6.91-20.5,0.88-3.84,2-8,4.26-11.1C257,102.52,263,94.95,269.28,87.67a14.93,14.93,0,0,1,12.87-5.48c3.42,0.28,5.19,2,5.55,5.25a13.56,13.56,0,0,1,0,5c-2.31,8.24,1.17,15.91,2.51,23.69,1.46,8.49,6,15.15,15.44,16.85,5.71,1,8-.18,9.78-5.55,1.18-3.46,2.08-7,3.41-10.43a79.16,79.16,0,0,1,3.72-7.33l2.07,0.3c0,5.08.05,10.16,0,15.23a30.63,30.63,0,0,1-.71,3.92c-1.75,11.62-6.9,17.81-15.89,19.09-12,1.69-21.69-3.23-26.47-13.41l-2-4.34a2.69,2.69,0,0,0-1.2,0q-10.54,11.12-21,22.29c-6.81,7.28-14.06,13.5-24.59,15-21.3,3-37.93-9.55-38.77-31.28-0.77-20.09.22-40.24,0.42-60.36,0-1.45,0-2.9,0-5.16-8.94,2.78-17.63,5.23-27.75.64,3.16-1.73,5.27-3.23,7.62-4.1,5.74-2.13,11.53-4.2,17.43-5.81,2.82-.77,4-1.72,4.42-4.82,1.69-13.5,3.46-27,5.8-40.4,1-5.9,3-11.84,9.28-15.71L206.3,57.52c32.7-8.29,64.62-15.82,97.28-19.34l0.59,1.34a12.72,12.72,0,0,1-2.2,1.8C281,51.9,257.76,54.93,235.3,60.51c-8.56,2.12-17.08,4.37-25.67,6.38-2.62.61-4,1.54-4.07,4.52-0.21,17.81-.72,35.61-0.73,53.42,0,3.71,1.3,7.56,2.64,11.1C216.47,159.68,243.59,156.11,254.1,142Zm24.4-45.38a7.29,7.29,0,0,0-1.94-.13c-7.45,2.13-18.76,17.28-18.22,24.95,0.12,1.74,1.86,4.48,3.24,4.75,2.2,0.42,5.46-.11,6.93-1.58,2.37-2.37,3.82-5.75,5.37-8.84C276.85,109.83,279.83,103.88,278.51,96.59Z" transform="translate(-1.35 -0.72)"/><path d="M35.18,104.47c-6.93,0-12.58.28-18.19-.06-10.59-.63-13.43-5.92-8.64-15.3C13,80,19.47,72.86,29.78,70.33c11.28-2.77,18.14,2.75,18,14.22,0,1.48,0,3,0,5.25,2.57-.84,4.75-1.34,6.76-2.23C64.78,83,74.88,78.32,85.11,73.87a32.16,32.16,0,0,1,8.64-2.33c6.18-.79,11.83,2.75,12.26,8.91a128.91,128.91,0,0,1-.82,23.76c-1.14,9.9-3.37,19.67-4.72,29.55a50.42,50.42,0,0,0,.2,11.94c0.62,5.88,3.66,7.76,8.87,4.86a45.93,45.93,0,0,0,12.11-9.42c6.58-7.49,12.31-15.72,18.67-23.41,1.74-2.11,4.77-5.07,6.67-4.73,3.89,0.71,7.53,3,8,8.19a129.33,129.33,0,0,0,2.93,16.2c1.19,5.25,2,10.42,6.56,14.59,5.11,4.68,3.91,8.42-2.23,11.15A46.58,46.58,0,0,0,157,166c-4.87,3-6.63,2.93-8.5-2.49-2.75-8-4.44-16.31-6.55-24.49-0.28-1.08-.4-2.21-0.81-4.53-1.75,1.89-3,3-4,4.36a78.1,78.1,0,0,1-29.21,23.65,23.79,23.79,0,0,1-8.5,2.52c-8.33.49-13-4.41-13.48-13.13-0.71-13,1.8-25.49,4.32-38.09A147.6,147.6,0,0,0,92.89,91c0.35-8.34-2-9.87-10-6.73S67.68,92,59.63,94.34c-10.84,3.21-14.14,10.42-17,20.67-6.17,22.41-14.34,44.27-21.83,66.3-2.41,7.11-7.8,11.89-13.82,16-1.24.83-2.89,1.05-5.68,2C19.8,169.43,26.39,137,35.18,104.47ZM27.9,93.61c2.71-1.25,8,2.47,7.67-4.4-0.24-5.63-2.16-7.93-7.18-7.9-4.41,0-9.94,4.6-9.32,8.52C19.9,95.07,24.76,92.56,27.9,93.61Z" transform="translate(-1.35 -0.72)"/><path d="M132.18,43.14c4.94,0.87,10,1.46,14.76,2.79,1.28,0.36,2.71,3,2.68,4.56A7.07,7.07,0,0,1,147,55.72c-1,.66-3.8-0.31-5.1-1.39-3.69-3.07-7-6.56-10.51-9.89Z" transform="translate(-1.35 -0.72)"/></svg>