<?xml version="1.0" encoding="utf-8"?>
<!-- Generator: Adobe Illustrator 19.2.1, SVG Export Plug-In . SVG Version: 6.00 Build 0)  -->
<svg version="1.1" id="Layer_1" xmlns="http://www.w3.org/2000/svg" xmlns:xlink="http://www.w3.org/1999/xlink" x="0px" y="0px"
	 viewBox="0 0 94 34.4" style="enable-background:new 0 0 94 34.4;" xml:space="preserve">
<style type="text/css">
	.st0{fill:url(#SVGID_1_);}
	.st1{fill:url(#SVGID_2_);}
	.st2{fill:url(#SVGID_3_);}
	.st3{fill:url(#SVGID_4_);}
</style>
<g>
	<linearGradient id="SVGID_1_" gradientUnits="userSpaceOnUse" x1="54.7632" y1="0.2666" x2="54.7632" y2="34.1416">
		<stop  offset="0" style="stop-color:#BFD232"/>
		<stop  offset="1" style="stop-color:#99BC3C"/>
	</linearGradient>
	<polygon class="st0" points="50.5,34.1 65.9,3.7 59.1,0.3 43.6,30.7 	"/>
	<linearGradient id="SVGID_2_" gradientUnits="userSpaceOnUse" x1="36.9757" y1="0.2666" x2="36.9757" y2="34.1416">
		<stop  offset="0" style="stop-color:#BFD232"/>
		<stop  offset="1" style="stop-color:#99BC3C"/>
	</linearGradient>
	<polygon class="st1" points="48.1,3.7 41.3,0.3 25.8,30.7 32.7,34.1 	"/>
	<linearGradient id="SVGID_3_" gradientUnits="userSpaceOnUse" x1="82.2759" y1="1.8975" x2="82.2759" y2="33.084">
		<stop  offset="0" style="stop-color:#BFD232"/>
		<stop  offset="1" style="stop-color:#99BC3C"/>
	</linearGradient>
	<path class="st2" d="M78.4,22h4.7c6.9,0,10.6-4.9,10.6-10c0-5.1-3.7-10-10.6-10H70.8v31.2h7.7V22z M78.4,8.8h4.3
		c2.1,0,3.3,1.5,3.3,3.2c0,1.6-1.2,3.2-3.3,3.2h-4.3V8.8z"/>
	<linearGradient id="SVGID_4_" gradientUnits="userSpaceOnUse" x1="10.6079" y1="1.8975" x2="10.6079" y2="33.084">
		<stop  offset="0" style="stop-color:#BFD232"/>
		<stop  offset="1" style="stop-color:#99BC3C"/>
	</linearGradient>
	<polygon class="st3" points="21,26.2 7.9,26.2 7.9,1.9 0.2,1.9 0.2,33.1 21,33.1 	"/>
</g>
</svg>
